<svg width="187" height="35" viewBox="0 0 187 35" fill="none" xmlns="http://www.w3.org/2000/svg">
<path fill-rule="evenodd" clip-rule="evenodd" d="M11.3699 3.88753C11.3699 0.752036 7.50792 -0.73725 5.40271 1.58641L0.88739 6.57028C0.316303 7.20063 1.52588e-05 8.02082 1.52588e-05 8.8714L1.21509e-05 21.6414C1.15703e-05 24.7769 3.86197 26.2661 5.96718 23.9425L10.4825 18.9586C11.0536 18.3282 11.3699 17.508 11.3699 16.6575L11.3699 3.88753ZM24.6265 2.26005C26.6797 -0.199873 30.685 1.252 30.685 4.45619L30.6849 16.6164C30.6849 17.4191 30.4032 18.1963 29.8889 18.8126L17.4283 33.7415C15.3751 36.2014 11.3699 34.7495 11.3699 31.5453L11.3699 19.3851C11.3699 18.5824 11.6516 17.8052 12.166 17.189L24.6265 2.26005ZM64.249 20.6646H67.5083C68.8999 20.6646 70.0921 20.4367 71.085 19.981C72.0859 19.5252 72.8509 18.8783 73.3799 18.04C73.9088 17.2018 74.1733 16.209 74.1733 15.0615C74.1733 13.9303 73.9088 12.9253 73.3799 12.0464C72.8509 11.1675 72.0859 10.4798 71.085 9.9834C70.0921 9.47884 68.8999 9.22656 67.5083 9.22656H60.5869V27H64.249V20.6646ZM64.249 17.8081V12.0952H67.5083C68.2082 12.0952 68.7778 12.2336 69.2173 12.5103C69.6567 12.7869 69.9782 13.1532 70.1816 13.6089C70.3851 14.0646 70.4868 14.557 70.4868 15.0859C70.4868 15.6068 70.3851 16.0747 70.1816 16.4897C69.9782 16.9048 69.6567 17.2303 69.2173 17.4663C68.7778 17.6942 68.2082 17.8081 67.5083 17.8081H64.249ZM80.1914 27V8.25H76.6636V27H80.1914ZM82.5351 20.2739V20.5303C82.5351 21.4906 82.6735 22.3817 82.9502 23.2036C83.2269 24.0174 83.6297 24.7295 84.1587 25.3398C84.6958 25.9421 85.3509 26.41 86.124 26.7437C86.9053 27.0773 87.7964 27.2441 88.7974 27.2441C89.7983 27.2441 90.6854 27.0773 91.4585 26.7437C92.2316 26.41 92.8826 25.9421 93.4116 25.3398C93.9487 24.7295 94.3556 24.0174 94.6323 23.2036C94.909 22.3817 95.0474 21.4906 95.0474 20.5303V20.2739C95.0474 19.3055 94.909 18.4144 94.6323 17.6006C94.3556 16.7786 93.9487 16.0666 93.4116 15.4644C92.8826 14.8621 92.2275 14.3942 91.4463 14.0605C90.665 13.7188 89.7739 13.5479 88.7729 13.5479C87.772 13.5479 86.8849 13.7188 86.1118 14.0605C85.3387 14.3942 84.6877 14.8621 84.1587 15.4644C83.6297 16.0666 83.2269 16.7786 82.9502 17.6006C82.6735 18.4144 82.5351 19.3055 82.5351 20.2739ZM86.0508 20.5303V20.2739C86.0508 19.7368 86.0996 19.2323 86.1973 18.7603C86.2949 18.2801 86.4495 17.8569 86.6611 17.4907C86.8809 17.1164 87.1616 16.8234 87.5034 16.6118C87.8533 16.4002 88.2765 16.2944 88.7729 16.2944C89.2694 16.2944 89.6925 16.4002 90.0425 16.6118C90.3924 16.8234 90.6732 17.1164 90.8848 17.4907C91.1045 17.8569 91.2632 18.2801 91.3608 18.7603C91.4666 19.2323 91.5195 19.7368 91.5195 20.2739V20.5303C91.5195 21.0837 91.4666 21.6004 91.3608 22.0806C91.2632 22.5607 91.1086 22.9839 90.897 23.3501C90.6854 23.7082 90.4046 23.9889 90.0547 24.1924C89.7047 24.3958 89.2856 24.4976 88.7974 24.4976C88.2928 24.4976 87.8656 24.3958 87.5156 24.1924C87.1657 23.9889 86.8809 23.7082 86.6611 23.3501C86.4495 22.9839 86.2949 22.5607 86.1973 22.0806C86.0996 21.6004 86.0508 21.0837 86.0508 20.5303ZM103.678 16.2822V13.792H101.407V10.5327H97.8916V13.792H95.9873V16.2822H97.8916V23.3745C97.8916 24.3022 98.0462 25.0509 98.3555 25.6206C98.6647 26.1903 99.1042 26.6053 99.6738 26.8657C100.252 27.118 100.927 27.2441 101.7 27.2441C102.123 27.2441 102.51 27.2157 102.86 27.1587C103.21 27.1017 103.535 27.0244 103.836 26.9268L103.824 24.3389C103.702 24.3633 103.552 24.3877 103.373 24.4121C103.202 24.4284 103.006 24.4365 102.787 24.4365C102.477 24.4365 102.221 24.3999 102.018 24.3267C101.814 24.2453 101.66 24.1029 101.554 23.8994C101.456 23.696 101.407 23.403 101.407 23.0205V16.2822H103.678ZM121.231 21.4946C121.329 21.7469 121.378 22.0317 121.378 22.3491C121.378 22.7479 121.276 23.106 121.073 23.4233C120.877 23.7407 120.572 23.9889 120.157 24.168C119.75 24.347 119.229 24.4365 118.595 24.4365C118.074 24.4365 117.594 24.3836 117.154 24.2778C116.723 24.172 116.349 24.0011 116.031 23.7651C115.722 23.5291 115.482 23.2199 115.311 22.8374C115.14 22.4549 115.055 21.987 115.055 21.4336H111.38C111.38 22.4346 111.588 23.3013 112.003 24.0337C112.418 24.7661 112.971 25.3683 113.663 25.8403C114.363 26.3123 115.14 26.6663 115.995 26.9023C116.849 27.1302 117.716 27.2441 118.595 27.2441C119.571 27.2441 120.454 27.1343 121.244 26.9146C122.033 26.6948 122.713 26.3734 123.282 25.9502C123.852 25.527 124.287 25.0103 124.588 24.3999C124.889 23.7896 125.04 23.0978 125.04 22.3247C125.04 21.5923 124.914 20.9372 124.662 20.3594C124.409 19.7816 124.035 19.2648 123.539 18.8091C123.042 18.3534 122.424 17.9424 121.683 17.5762C120.951 17.21 120.1 16.8804 119.132 16.5874C118.554 16.4084 118.045 16.2253 117.606 16.0381C117.166 15.8509 116.796 15.6515 116.495 15.4399C116.194 15.2284 115.966 15.0005 115.812 14.7563C115.665 14.5122 115.592 14.2396 115.592 13.9385C115.592 13.5397 115.698 13.1816 115.909 12.8643C116.121 12.5387 116.438 12.2824 116.861 12.0952C117.285 11.8999 117.813 11.8022 118.448 11.8022C119.107 11.8022 119.653 11.9162 120.084 12.144C120.523 12.3719 120.849 12.6852 121.061 13.084C121.28 13.4746 121.39 13.9303 121.39 14.4512H125.028C125.028 13.3932 124.755 12.4533 124.21 11.6313C123.673 10.8094 122.916 10.1624 121.939 9.69043C120.963 9.21842 119.819 8.98242 118.509 8.98242C117.549 8.98242 116.666 9.10042 115.86 9.33643C115.063 9.57243 114.371 9.91016 113.785 10.3496C113.199 10.7809 112.743 11.3018 112.418 11.9121C112.092 12.5143 111.93 13.1857 111.93 13.9263C111.93 14.6912 112.084 15.3626 112.394 15.9404C112.711 16.5182 113.142 17.0269 113.687 17.4663C114.241 17.8976 114.876 18.276 115.592 18.6016C116.316 18.9271 117.081 19.2201 117.887 19.4805C118.611 19.7083 119.201 19.9281 119.657 20.1396C120.112 20.3512 120.466 20.5669 120.719 20.7866C120.971 20.9982 121.142 21.2342 121.231 21.4946ZM133.915 24.2534C133.581 24.4162 133.198 24.4976 132.767 24.4976C132.246 24.4976 131.823 24.3918 131.498 24.1802C131.172 23.9686 130.916 23.6797 130.729 23.3135C130.549 22.9473 130.427 22.5282 130.362 22.0562C130.297 21.5841 130.265 21.0918 130.265 20.5791V20.2251C130.265 19.7124 130.297 19.2241 130.362 18.7603C130.436 18.2882 130.562 17.8691 130.741 17.5029C130.92 17.1286 131.172 16.8356 131.498 16.624C131.823 16.4043 132.242 16.2944 132.755 16.2944C133.235 16.2944 133.638 16.4043 133.963 16.624C134.297 16.8356 134.549 17.1204 134.72 17.4785C134.899 17.8366 134.993 18.2354 135.001 18.6748H138.309C138.301 17.625 138.061 16.7176 137.589 15.9526C137.125 15.1795 136.482 14.5854 135.66 14.1704C134.846 13.7554 133.898 13.5479 132.816 13.5479C131.799 13.5479 130.912 13.7188 130.155 14.0605C129.398 14.4023 128.767 14.8784 128.263 15.4888C127.758 16.091 127.38 16.799 127.127 17.6128C126.875 18.4185 126.749 19.2892 126.749 20.2251V20.5791C126.749 21.5068 126.875 22.3776 127.127 23.1914C127.38 23.9971 127.758 24.7051 128.263 25.3154C128.767 25.9176 129.398 26.3896 130.155 26.7314C130.92 27.0732 131.815 27.2441 132.84 27.2441C133.858 27.2441 134.777 27.0407 135.599 26.6338C136.421 26.2188 137.076 25.6532 137.564 24.937C138.053 24.2127 138.301 23.3867 138.309 22.459H135.001C134.993 22.874 134.891 23.2362 134.696 23.5454C134.509 23.8465 134.248 24.0825 133.915 24.2534ZM143.778 15.2573V8.25H140.262V27H143.778V17.552C143.813 17.489 143.849 17.4279 143.888 17.3687C144.099 17.035 144.38 16.7746 144.73 16.5874C145.088 16.4002 145.519 16.3066 146.024 16.3066C146.48 16.3066 146.862 16.3799 147.171 16.5264C147.489 16.6647 147.729 16.9048 147.892 17.2466C148.062 17.5802 148.148 18.04 148.148 18.626V27H151.688V18.6504C151.688 17.7227 151.582 16.9333 151.371 16.2822C151.159 15.6312 150.858 15.1063 150.467 14.7075C150.085 14.3006 149.625 14.0077 149.088 13.8286C148.559 13.6414 147.969 13.5479 147.318 13.5479C146.569 13.5479 145.886 13.7065 145.267 14.0239C144.696 14.321 144.199 14.7321 143.778 15.2573ZM153.8 20.2739V20.5303C153.8 21.4906 153.938 22.3817 154.215 23.2036C154.492 24.0174 154.894 24.7295 155.423 25.3398C155.96 25.9421 156.616 26.41 157.389 26.7437C158.17 27.0773 159.061 27.2441 160.062 27.2441C161.063 27.2441 161.95 27.0773 162.723 26.7437C163.496 26.41 164.147 25.9421 164.676 25.3398C165.213 24.7295 165.62 24.0174 165.897 23.2036C166.174 22.3817 166.312 21.4906 166.312 20.5303V20.2739C166.312 19.3055 166.174 18.4144 165.897 17.6006C165.62 16.7786 165.213 16.0666 164.676 15.4644C164.147 14.8621 163.492 14.3942 162.711 14.0605C161.93 13.7188 161.039 13.5479 160.038 13.5479C159.037 13.5479 158.15 13.7188 157.376 14.0605C156.603 14.3942 155.952 14.8621 155.423 15.4644C154.894 16.0666 154.492 16.7786 154.215 17.6006C153.938 18.4144 153.8 19.3055 153.8 20.2739ZM157.315 20.5303V20.2739C157.315 19.7368 157.364 19.2323 157.462 18.7603C157.56 18.2801 157.714 17.8569 157.926 17.4907C158.145 17.1164 158.426 16.8234 158.768 16.6118C159.118 16.4002 159.541 16.2944 160.038 16.2944C160.534 16.2944 160.957 16.4002 161.307 16.6118C161.657 16.8234 161.938 17.1164 162.149 17.4907C162.369 17.8569 162.528 18.2801 162.625 18.7603C162.731 19.2323 162.784 19.7368 162.784 20.2739V20.5303C162.784 21.0837 162.731 21.6004 162.625 22.0806C162.528 22.5607 162.373 22.9839 162.162 23.3501C161.95 23.7082 161.669 23.9889 161.319 24.1924C160.969 24.3958 160.55 24.4976 160.062 24.4976C159.557 24.4976 159.13 24.3958 158.78 24.1924C158.43 23.9889 158.145 23.7082 157.926 23.3501C157.714 22.9839 157.56 22.5607 157.462 22.0806C157.364 21.6004 157.315 21.0837 157.315 20.5303ZM167.911 20.2739V20.5303C167.911 21.4906 168.049 22.3817 168.326 23.2036C168.603 24.0174 169.006 24.7295 169.535 25.3398C170.072 25.9421 170.727 26.41 171.5 26.7437C172.281 27.0773 173.172 27.2441 174.173 27.2441C175.174 27.2441 176.061 27.0773 176.834 26.7437C177.608 26.41 178.259 25.9421 178.788 25.3398C179.325 24.7295 179.732 24.0174 180.008 23.2036C180.285 22.3817 180.423 21.4906 180.423 20.5303V20.2739C180.423 19.3055 180.285 18.4144 180.008 17.6006C179.732 16.7786 179.325 16.0666 178.788 15.4644C178.259 14.8621 177.604 14.3942 176.822 14.0605C176.041 13.7188 175.15 13.5479 174.149 13.5479C173.148 13.5479 172.261 13.7188 171.488 14.0605C170.715 14.3942 170.064 14.8621 169.535 15.4644C169.006 16.0666 168.603 16.7786 168.326 17.6006C168.049 18.4144 167.911 19.3055 167.911 20.2739ZM171.427 20.5303V20.2739C171.427 19.7368 171.476 19.2323 171.573 18.7603C171.671 18.2801 171.826 17.8569 172.037 17.4907C172.257 17.1164 172.538 16.8234 172.879 16.6118C173.229 16.4002 173.652 16.2944 174.149 16.2944C174.645 16.2944 175.069 16.4002 175.418 16.6118C175.768 16.8234 176.049 17.1164 176.261 17.4907C176.48 17.8569 176.639 18.2801 176.737 18.7603C176.843 19.2323 176.895 19.7368 176.895 20.2739V20.5303C176.895 21.0837 176.843 21.6004 176.737 22.0806C176.639 22.5607 176.485 22.9839 176.273 23.3501C176.061 23.7082 175.781 23.9889 175.431 24.1924C175.081 24.3958 174.662 24.4976 174.173 24.4976C173.669 24.4976 173.242 24.3958 172.892 24.1924C172.542 23.9889 172.257 23.7082 172.037 23.3501C171.826 22.9839 171.671 22.5607 171.573 22.0806C171.476 21.6004 171.427 21.0837 171.427 20.5303ZM186.295 27V8.25H182.767V27H186.295ZM43.9497 2.19482C46.0079 -0.252709 50 1.20274 50 4.40065L50 16.4373C50 17.2443 49.7152 18.0255 49.1958 18.6431L36.7353 33.4606C34.6771 35.9081 30.6849 34.4527 30.6849 31.2548L30.6849 19.2181C30.6849 18.4111 30.9697 17.63 31.4891 17.0123L43.9497 2.19482Z" fill="#007BFF"/>
</svg>
