<?xml version="1.0" standalone="no"?><!DOCTYPE svg PUBLIC "-//W3C//DTD SVG 1.1//EN" "http://www.w3.org/Graphics/SVG/1.1/DTD/svg11.dtd"><svg t="1611130673302" class="icon" viewBox="0 0 1539 1024" version="1.1" xmlns="http://www.w3.org/2000/svg" p-id="3646" xmlns:xlink="http://www.w3.org/1999/xlink" width="300.5859375" height="200"><defs><style type="text/css"></style></defs><path d="M499.686009 668.164647a249.540298 249.540298 0 0 1-171.59059-80.480543 417.587719 417.587719 0 0 1-111.356725-297.119989A281.428814 281.428814 0 0 1 500.698343 0.024296a281.934981 281.934981 0 0 1 285.47815 291.045986c0 220.688782-147.800744 367.477193-284.465816 376.588198zM500.698343 101.257682a183.738596 183.738596 0 0 0-186.775598 192.343435 317.366667 317.366667 0 0 0 82.50521 224.231951 154.887081 154.887081 0 0 0 101.233387 50.616693c80.480542-6.58017 190.824933-106.295056 190.824933-277.885646A183.232429 183.232429 0 0 0 500.698343 101.257682z" fill="#666666" p-id="3647"></path><path d="M787.694994 664.115311a53.653695 53.653695 0 0 1-21.259011-4.555502 217.651781 217.651781 0 0 0-34.925519-13.16034l-12.148006-3.543169-74.406539-20.752844a50.616693 50.616693 0 1 1 26.32068-95.159383l89.591547 24.802179 14.678841 4.049336a258.145135 258.145135 0 0 1 118.443062-66.814035h4.555503l50.616693-18.22201a50.616693 50.616693 0 0 1 33.913185 92.628549l-53.147528 19.234343h-13.160341a156.911749 156.911749 0 0 0-87.060712 58.715364 50.616693 50.616693 0 0 1-42.011855 22.777512z" fill="#666666" p-id="3648"></path><path d="M102.851134 1024a105.788889 105.788889 0 0 1-79.468208-38.974854 101.233386 101.233386 0 0 1-19.74051-91.616215L52.234441 753.200691a303.700159 303.700159 0 0 1 217.145614-202.466773l78.455875-16.197342a50.616693 50.616693 0 0 1 58.715364 36.950187 50.616693 50.616693 0 0 1-38.974854 58.715364l-77.443541 15.691175a202.466773 202.466773 0 0 0-142.739075 135.652737L102.851134 920.741946a8.604838 8.604838 0 0 0 0 3.543168 46.061191 46.061191 0 0 1 8.604838 0h807.842424a8.604838 8.604838 0 0 0 6.074003-3.543168v-3.037002l-20.246677-63.270866A47.579692 47.579692 0 0 1 912.718226 809.891388a50.616693 50.616693 0 0 1 40.493355-20.246678h482.883253l-33.407018-101.233386a151.85008 151.85008 0 0 0-112.875225-101.233387h-16.197342l-50.616694-19.234343a50.616693 50.616693 0 0 1-28.345348-64.2832 50.616693 50.616693 0 0 1 65.801701-27.333015l50.616694 18.22201A257.132802 257.132802 0 0 1 1498.859534 658.041308l35.431685 109.838224a88.579213 88.579213 0 0 1-14.172674 84.529878 101.233386 101.233386 0 0 1-76.431207 36.950186h-420.118554a104.270388 104.270388 0 0 1-14.678841 88.579213 112.875226 112.875226 0 0 1-87.566879 43.530356H102.851134z" fill="#666666" p-id="3649"></path><path d="M1101.518492 543.647581a180.195428 180.195428 0 0 1-112.875226-43.024189 1088.765071 1088.765071 0 0 1-155.899415-25.814514l-17.715843-4.555502a72.888038 72.888038 0 0 1-50.616693-33.407017 75.92504 75.92504 0 0 1 0-71.369538l53.653695-93.134715A423.661722 423.661722 0 0 0 862.101533 182.750559v-9.111005A234.35529 234.35529 0 0 1 1023.062617 14.703137h5.06167a248.021797 248.021797 0 0 1 133.121903 0l12.148006 4.555502a234.861457 234.861457 0 0 1 156.911749 155.899416l5.061669 13.666507a297.626156 297.626156 0 0 0 41.505689 81.999043l53.653695 92.628548a76.431207 76.431207 0 0 1-43.02419 107.813557l-23.789845 6.074003a1092.30824 1092.30824 0 0 1-151.85008 25.814514 177.158426 177.158426 0 0 1-110.344391 40.493354z m-242.960128-157.417916a983.482349 983.482349 0 0 0 151.85008 24.296013h17.715843l12.654173 13.16034a83.517544 83.517544 0 0 0 58.715364 26.320681 80.986709 80.986709 0 0 0 56.690696-26.826848l12.148007-13.16034h17.715842a955.643168 955.643168 0 0 0 151.85008-24.296013l-40.493354-70.357203a416.575385 416.575385 0 0 1-50.616694-101.233387L1242.739066 202.491069a145.776076 145.776076 0 0 0-98.196385-101.233387h-11.641839a151.85008 151.85008 0 0 0-76.937374 0h-4.555503a143.751409 143.751409 0 0 0-101.233386 96.677885l-2.530835 10.629505a546.15412 546.15412 0 0 1-50.616693 109.838224z" fill="#666666" p-id="3650"></path></svg>