<?xml version="1.0" standalone="no"?><!DOCTYPE svg PUBLIC "-//W3C//DTD SVG 1.1//EN" "http://www.w3.org/Graphics/SVG/1.1/DTD/svg11.dtd"><svg t="1611130540149" class="icon" viewBox="0 0 1024 1024" version="1.1" xmlns="http://www.w3.org/2000/svg" p-id="2020" xmlns:xlink="http://www.w3.org/1999/xlink" width="200" height="200"><defs><style type="text/css"></style></defs><path d="M512 1024a512 512 0 1 1 512-512 512 512 0 0 1-512 512z m0-947.2a435.2 435.2 0 1 0 435.2 435.2A435.2 435.2 0 0 0 512 76.8z" fill="#333333" p-id="2021"></path><path d="M516.2752 768c-12.8 0-132.2752-61.9264-132.2752-78.4384s89.6-322.0736 89.6-322.0736l-76.8-90.8288S384 256 418.1248 256h187.7248c34.1248 0 17.0496 20.6336 17.0496 20.6336L550.4 367.488S640 673.024 640 689.5616 529.0496 768 516.2752 768z" fill="#333333" p-id="2022"></path></svg>