<svg t="1611130643413" class="icon" viewBox="0 0 1181 1024" width="230.6640625" height="200"><><style type="text/css"></style></<path d="M744.369231 633.068308a298.299077 298.299077 0 1 1 0-596.598154 298.299077 298.299077 0 0 1 0 596.598154z m0-84.598154a213.700923 213.700923 0 1 0 0-427.401846 213.700923 213.700923 0 0 0 0 427.401846z" fill="#666666" p-id="2755"></path><path d="M385.969231 122.407385a42.299077 42.299077 0 1 1 0 84.598153c-89.481846 0-162.500923 74.830769-162.500923 167.778462 0 92.868923 73.019077 167.778462 162.500923 167.778462a42.299077 42.299077 0 0 1 0 84.519384c-136.743385 0-247.099077-113.191385-247.099077-252.297846 0-139.185231 110.355692-252.376615 247.099077-252.376615zM1145.068308 971.460923a42.299077 42.299077 0 1 1-84.598154 0c0-179.830154-141.784615-325.316923-316.100923-325.316923s-316.100923 145.486769-316.100923 325.316923a42.299077 42.299077 0 1 1-84.598154 0c0-226.067692 179.121231-409.836308 400.699077-409.836308 221.577846 0 400.699077 183.689846 400.699077 409.836308z" fill="#666666" p-id="2756"></path><path d="M385.969231 542.483692a42.299077 42.299077 0 0 1 0 84.598154c-146.038154 0-264.900923 121.934769-264.900923 272.777846a42.299077 42.299077 0 1 1-84.598154 0c0-197.080615 156.199385-357.376 349.499077-357.376z" fill="#666666" p-id="2757"></path></svg>